{  "asset": {    "version": "2.0",    "generator": "THREE.GLTFExporter r167"  },  "scenes": [    {      "name": "AuxScene",      "nodes": [        1      ]    }  ],  "scene": 0,  "nodes": [    {      "mesh": 0    },    {      "children": [        0      ]    }  ],  "bufferViews": [    {      "buffer": 0,      "byteOffset": 0,      "byteLength": 1564776,      "target": 34962,      "byteStride": 12    },    {      "buffer": 0,      "byteOffset": 1564776,      "byteLength": 1564776,      "target": 34962,      "byteStride": 12    }  ],  "buffers": [    {      "byteLength": 3129552,      "uri": "data:application/octet-stream;base64,"    }  ],  "accessors": [    {      "bufferView": 0,      "componentType": 5126,      "count": 130398,      "max": [        23.793371200561523,        19.52931022644043,        33.38850402832031      ],      "min": [        -23.793373107910156,        -19.52931022644043,        -33.38850021362305      ],      "type": "VEC3"    },    {      "bufferView": 1,      "componentType": 5126,      "count": 130398,      "max": [        1,        1,        1      ],      "min": [        -1,        -1,        -1      ],      "type": "VEC3"    }  ],  "materials": [    {      "pbrMetallicRoughness": {        "baseColorFactor": [          0.6038273388475408,          0.6038273388475408,          0.6038273388475408,          1        ],        "metallicFactor": 0.5,        "roughnessFactor": 0.5      },      "doubleSided": true,      "name": "mat0"    }  ],  "meshes": [    {      "primitives": [        {          "mode": 4,          "attributes": {            "POSITION": 0,            "NORMAL": 1          },          "material": 0        }      ]    }  ]}